<svg id="Layer_1" data-name="Layer 1" xmlns="http://www.w3.org/2000/svg" viewBox="0 0 968.09 142.62"><defs><style>.cls-1{fill:#21325b;}</style></defs><title>logo</title><path class="cls-1" d="M886.58,201.07l22.25-2.38V340.12H886.58Z" transform="translate(-55.95 -198.69)"/><path class="cls-1" d="M979,199.88c21.66,0,36.75,15.89,36.75,36.55a32.7,32.7,0,0,1-10.92,24.63c12.11,8.14,19.27,20.66,19.27,35.56,0,25-18.87,44.69-45.1,44.69s-45.09-19.66-45.09-44.69c0-14.9,7.15-27.42,19.27-35.56a32.7,32.7,0,0,1-10.92-24.63C942.21,215.77,957.3,199.88,979,199.88Zm0,120.38c13.51,0,22.85-9.34,22.85-23.64S992.46,273,979,273s-22.84,9.34-22.84,23.64S965.45,320.26,979,320.26Zm0-68.34c9.14,0,15.3-6.35,15.3-15.49s-6.16-15.5-15.3-15.5-15.29,6.36-15.29,15.5S969.82,251.92,979,251.92Z" transform="translate(-55.95 -198.69)"/><path class="cls-1" d="M163.08,214.34a51.55,51.55,0,0,0-37.8-15.65H58a2,2,0,0,0-2,2V339.27a2,2,0,0,0,2,2H93.5a2,2,0,0,0,2-2V307.64a2,2,0,0,1,2.06-2h27.68a53.47,53.47,0,0,0,53.47-53.47A51.49,51.49,0,0,0,163.08,214.34Zm-28,47.58a13.07,13.07,0,0,1-9.76,4.08H97.6a2,2,0,0,1-2.06-2V240.33a2.05,2.05,0,0,1,2.06-2.06h27.68a13.12,13.12,0,0,1,9.76,4.1,13.35,13.35,0,0,1,4.1,9.77A13.1,13.1,0,0,1,135,261.92Z" transform="translate(-55.95 -198.69)"/><path class="cls-1" d="M296.21,299.62a2,2,0,0,1,.64-2.73,53.62,53.62,0,0,0,24.08-44.75,53.43,53.43,0,0,0-53.47-53.45H200.18a2,2,0,0,0-2,2V339.27a2,2,0,0,0,2,2h35.53a2,2,0,0,0,2-2V307.64a2,2,0,0,1,2-2h12.85a2,2,0,0,1,1.76,1l20,33.69a2,2,0,0,0,1.76,1h41.21a2,2,0,0,0,1.76-3.08Zm-19-37.7a13.14,13.14,0,0,1-9.79,4.08H239.78a2,2,0,0,1-2-2V240.33a2.05,2.05,0,0,1,2-2.06h27.68a13.19,13.19,0,0,1,9.79,4.1,13.33,13.33,0,0,1,4.08,9.77A13.08,13.08,0,0,1,277.25,261.92Z" transform="translate(-55.95 -198.69)"/><path class="cls-1" d="M377.89,198.69H342.38a2,2,0,0,0-2,2V339.27a2,2,0,0,0,2,2h35.51a2,2,0,0,0,2.06-2V200.73A2,2,0,0,0,377.89,198.69Z" transform="translate(-55.95 -198.69)"/><path class="cls-1" d="M547.93,198.69h-35.4a2,2,0,0,0-1.68.86l-34.51,49.32a2.08,2.08,0,0,1-3.37,0l-34.61-49.32a2,2,0,0,0-1.68-.86h-35.3a2,2,0,0,0-2,2V339.27a2,2,0,0,0,2,2h35.53a2,2,0,0,0,2-2V275.89a2,2,0,0,1,3.72-1.17L473,318a2.08,2.08,0,0,0,3.37,0l30.22-43.27a2,2,0,0,1,3.7,1.17v63.38a2,2,0,0,0,2.06,2h35.61a2,2,0,0,0,2-2V200.73A2,2,0,0,0,547.93,198.69Z" transform="translate(-55.95 -198.69)"/><path class="cls-1" d="M611,238.27h79.11a2,2,0,0,0,2-2v-35.5a2,2,0,0,0-2-2H571.42a2,2,0,0,0-2,2V339.27a2,2,0,0,0,2,2H690.14a2,2,0,0,0,2-2v-35.5a2,2,0,0,0-2-2H611a2,2,0,0,1-2-2.06V287.89a2,2,0,0,1,2-2h52.75a2,2,0,0,0,2-2V256.19a2,2,0,0,0-2-2H611a2,2,0,0,1-2-2V240.33A2,2,0,0,1,611,238.27Z" transform="translate(-55.95 -198.69)"/><path class="cls-1" d="M809.64,299.62a2,2,0,0,1,.63-2.73,53.66,53.66,0,0,0,24.09-44.75,53.43,53.43,0,0,0-53.47-53.45H713.6a2,2,0,0,0-2,2V339.27a2,2,0,0,0,2,2h35.53a2,2,0,0,0,2-2V307.64a2,2,0,0,1,2-2h12.87a2.05,2.05,0,0,1,1.76,1l19.95,33.69a2,2,0,0,0,1.76,1h41.24a2,2,0,0,0,1.73-3.08Zm-19-37.7a13.08,13.08,0,0,1-9.78,4.08H753.21a2,2,0,0,1-2-2V240.33a2.05,2.05,0,0,1,2-2.06h27.68a13.14,13.14,0,0,1,9.78,4.1,13.33,13.33,0,0,1,4.08,9.77A13.08,13.08,0,0,1,790.67,261.92Z" transform="translate(-55.95 -198.69)"/></svg>